# xmcd CD database file
#
# Track frame offsets:
#	150
#	27407
#	43129
#	68373
#	95939
#	108164
#	125763
#	150841
#	166833
#	193996
#
# Disc length: 2769 seconds
#
# Revision: 0
# Processed by: cddbd v1.5.2PL0 Copyright (c) Steve Scherf et al.
# Submitted via: CDex 1.51
#
DISCID=810acf0a
DTITLE=Michelle Kiner - Clear Days
DYEAR=1999
DGENRE=Jazz
TTITLE0=Scarborough Fair - Autumn Leaves
TTITLE1=Someone
TTITLE2=What A Little Moonlight Can Do
TTITLE3=The Nearness Of You
TTITLE4=The Lamp Is Low
TTITLE5=On A Clear Day
TTITLE6=Dindi
TTITLE7=More Today Than Yesterday
TTITLE8=You Don't Know What Love Is
TTITLE9=There Is No Greater Love
EXTD=YEAR: 1999
EXTT0=
EXTT1=
EXTT2=
EXTT3=
EXTT4=
EXTT5=
EXTT6=
EXTT7=
EXTT8=
EXTT9=
PLAYORDER=
